<?xml version="1.0" encoding="UTF-8" standalone="no"?>
<svg
   xmlns:dc="http://purl.org/dc/elements/1.1/"
   xmlns:cc="http://creativecommons.org/ns#"
   xmlns:rdf="http://www.w3.org/1999/02/22-rdf-syntax-ns#"
   xmlns:svg="http://www.w3.org/2000/svg"
   xmlns="http://www.w3.org/2000/svg"
   viewBox="0 0 633.54669 183.93333"
   height="183.93333"
   width="633.54669"
   xml:space="preserve"
   id="svg2"
   version="1.1"><metadata
     id="metadata8"><rdf:RDF><cc:Work
         rdf:about=""><dc:format>image/svg+xml</dc:format><dc:type
           rdf:resource="http://purl.org/dc/dcmitype/StillImage" /></cc:Work></rdf:RDF></metadata><defs
     id="defs6"><clipPath
       id="clipPath20"
       clipPathUnits="userSpaceOnUse"><path
         id="path18"
         d="M 0,1379.52 V 0 h 4751.63 v 1379.52 z" /></clipPath></defs><g
     transform="matrix(1.3333333,0,0,-1.3333333,0,183.93333)"
     id="g10"><g
       transform="scale(0.1)"
       id="g12"><g
         id="g14"><g
           clip-path="url(#clipPath20)"
           id="g16"><path
             id="path22"
             style="fill:#ffffff;fill-opacity:1;fill-rule:nonzero;stroke:none"
             d="m 1338.6,681.957 c 0,-362.918 -294.2,-657.0976 -657.116,-657.0976 -362.898,0 -657.0973,294.1796 -657.0973,657.0976 0,362.913 294.1993,657.113 657.0973,657.113 362.916,0 657.116,-294.2 657.116,-657.113" /><path
             id="path24"
             style="fill:#b09247;fill-opacity:1;fill-rule:nonzero;stroke:none"
             d="m 3830.43,580.703 c 52.33,99.676 125.89,241.895 131.09,252.289 5.12,-12.004 72.35,-150.875 121.66,-252.289 z m 655.86,-160.39 c -46.15,17.089 -56.7,25.253 -69.93,54.46 L 4094.11,1115.78 H 3960.56 L 3600.19,462.434 c -13,-24.637 -24.84,-30.438 -55.01,-41.098 l -81.86,-24.984 v -95.524 h 399.7 v 97.84 l -88.75,23.035 c -19,4.692 -18.16,17.285 -13.7,25.836 0,0 11.61,22.098 29.06,55.391 h 334.72 c 17.75,-33.551 22.47,-40.332 28.25,-52.453 8.46,-17.848 -8.04,-25.864 -28.98,-31.739 l -80.06,-22.203 v -95.707 h 513.3 v 93.961 c 0,0 -70.46,25.477 -70.57,25.524" /><path
             id="path26"
             style="fill:#b09247;fill-opacity:1;fill-rule:nonzero;stroke:none"
             d="m 3450.49,605.066 79.46,23.332 v 99.657 h -516.23 v -99.657 l 79.48,-23.332 c 56.4,-17.324 58.57,-23.714 58.57,-68.824 V 400.613 c -28.44,-5.562 -82.31,-6.136 -117.14,-1.035 -186.62,27.246 -238.09,164.746 -238.09,308.867 0,81.016 27.27,154.606 89.14,214.407 44.12,42.621 111.72,81.408 214.45,77.658 44.81,-1.639 96.29,-23.006 114.04,-35.389 51.13,-35.57 63.13,-77.539 76.65,-129.121 h 132.23 l -0.59,202.93 c 0,0 -133.36,91.3 -363.83,91.3 -183.06,0 -543.03,-76.18 -543.03,-434.089 0,-219.61 184.54,-391.11 505.51,-407.403 221.07,-11.187 370.99,54.094 370.99,54.094 l -0.15,193.41 c 0,45.11 2.14,51.5 58.54,68.824" /><path
             id="path28"
             style="fill:#b09247;fill-opacity:1;fill-rule:nonzero;stroke:none"
             d="m 2192.92,749.238 c -14.43,-13.23 -46.94,-29.289 -73.42,-35.965 -72.32,-18.312 -165.19,-11.175 -168.55,-11.175 v 306.752 c 61.25,0 168.28,9.24 237.09,-40.225 33.91,-24.406 53.75,-63.125 54.79,-113.09 0.76,-35.262 -12.23,-74.043 -49.91,-106.297 z m -19.23,360.112 c -38.52,4.15 -149.98,5.3 -149.98,5.3 l -453.98,-0.15 v -99.29 l 76.13,-23.542 c 61.83,-19.93 61.83,-25.805 61.83,-71.258 l 0.36,-430.285 c 0,-45.547 0,-48.258 -61.95,-67.879 l -75.94,-21.785 V 300.52 h 518.48 v 99.941 l -75.98,21.785 c -61.97,19.621 -61.97,22.332 -61.97,67.879 l 0.26,102.688 c 7.91,0 122.73,0 122.73,0 112.93,1.746 204.29,8.937 285.86,55.109 77.77,44.023 120.31,125.523 120.31,210.734 0,137.465 -108.7,230.544 -306.16,250.694" /><path
             id="path30"
             style="fill:#b09247;fill-opacity:1;fill-rule:nonzero;stroke:none"
             d="M 689.73,1379.52 C 309.434,1379.52 0,1070.12 0,689.773 0,309.469 309.434,0 689.73,0 c 380.39,0 689.76,309.469 689.76,689.773 0,380.347 -309.37,689.747 -689.76,689.747" /><path
             id="path32"
             style="fill:#122341;fill-opacity:1;fill-rule:nonzero;stroke:none"
             d="m 689.41,1316.35 c -346.058,0 -627.6366,-281.56 -627.6366,-627.694 0,-346.074 281.5786,-627.6443 627.6366,-627.6443 346.16,0 627.67,281.5703 627.67,627.6443 0,346.134 -281.51,627.694 -627.67,627.694" /><path
             id="path34"
             style="fill:#b09247;fill-opacity:1;fill-rule:nonzero;stroke:none"
             d="m 689.73,228.371 c 252.805,0 458.53,205.699 458.53,458.543 0,252.836 -205.725,458.496 -458.53,458.496 -252.781,0 -458.496,-205.66 -458.496,-458.496 0,-252.844 205.715,-458.543 458.496,-458.543" /><path
             id="path36"
             style="fill:#122341;fill-opacity:1;fill-rule:evenodd;stroke:none"
             d="m 727.234,1061.02 c -8.168,-0.64 -11.921,-10.32 -10.418,-19.82 9.313,1 17.93,2.69 25.817,5.07 -0.82,3.5 -2.352,6.71 -4.488,9.34 -2.348,2.78 -5.934,5.81 -10.911,5.41 z m -78.566,-0.36 c -4.375,1.28 -8.613,-1.05 -10.93,-3.13 -3.07,-2.83 -5.261,-6.96 -6.375,-11.26 7.985,-2.35 16.508,-4.07 25.825,-5.07 1.265,8.57 -1.559,17.4 -8.52,19.46 z m 37.734,0.56 c -6.582,-0.48 -11.859,-2.9 -15.597,-6.66 -3.5,-3.52 -5.828,-8.41 -6.426,-14.09 14.215,-1.52 31.105,-1.33 45.184,-0.11 -0.645,6.28 -3.122,11.17 -7.086,14.87 -3.391,3.05 -9.516,6.42 -16.075,5.99 z m 59.071,-51.27 c -0.235,3.83 -1.231,6.91 -3.118,9.41 -1.789,2.41 -4.281,4.45 -8,4.5 -6.097,0.1 -9.964,-4.18 -12.363,-8.02 -2.789,-4.43 -4.324,-9.77 -3.996,-15.84 -2.433,-0.426 -5.121,-1.094 -7.527,-1.285 -0.199,6.835 -3.02,11.995 -6.989,15.665 -3.929,3.61 -9.371,6.24 -16.503,6.24 -7.157,0 -12.434,-2.66 -16.446,-6.24 -4.07,-3.63 -6.793,-8.83 -7.097,-15.665 -2.606,0.336 -5.168,0.797 -7.528,1.375 0.309,10.29 -3.636,18.32 -10.258,22.12 -3.968,2.31 -9.031,1.94 -12.152,-0.72 -2.926,-2.52 -4.609,-6.49 -4.891,-11.46 -0.382,-0.12 -10.64,8.86 -13.097,12.1 0,0 -0.016,0.03 -0.016,0.07 -0.125,1.48 -0.179,2.98 -0.179,4.52 0,39.49 32.171,71.66 71.664,71.66 39.527,0 71.679,-32.17 71.679,-71.66 0,-1.13 0,-2.28 -0.047,-3.43 -1.699,-2.71 -5.402,-8.13 -13.136,-13.34 z m -4.243,-15.317 c -2.539,-3.735 -6.207,-7.539 -11.597,-7.914 -2.68,-0.188 -5.293,0.922 -7.082,2.582 -2.641,2.406 -3.922,5.98 -4.438,10.699 10.145,2.15 19.293,5.25 27.184,9.69 0.094,0 0.117,-0.06 0.117,-0.12 0.149,-5.35 -1.348,-10.789 -4.184,-14.937 z m -37.75,-11.852 c -3.988,-3.687 -9.308,-6.281 -16.503,-6.281 -7.157,0 -12.614,2.594 -16.489,6.281 -4.027,3.657 -6.883,8.746 -6.972,15.559 0,0.144 0,0.277 0.117,0.277 14.082,-2.387 32.914,-2.183 46.836,-0.113 -0.11,-6.977 -2.996,-12.066 -6.989,-15.723 z M 645,986.719 c -5.359,-0.031 -9.387,4.004 -11.895,7.629 -2.8,4.156 -4.609,9.162 -4.5,15.142 v 0.26 c 7.895,-4.41 17.094,-7.51 27.192,-9.75 -0.539,-6.816 -3.977,-13.207 -10.797,-13.281 z m 41.977,125.911 c -47.368,0 -85.922,-38.56 -85.922,-85.91 0,-47.4 38.554,-85.931 85.922,-85.931 47.394,0 85.968,38.531 85.968,85.931 0,47.35 -38.574,85.91 -85.968,85.91" /><path
             id="path38"
             style="fill:#122341;fill-opacity:1;fill-rule:nonzero;stroke:none"
             d="m 985.535,416.004 c -0.765,0.625 -18.269,15.004 -47.687,17.359 -8.961,0.977 -14.535,1.032 -33.723,-2.504 -16.609,-3.683 -26.199,-7.39 -31.93,-10.437 -5.101,7.125 -63.89,84.601 -94.507,126.113 -5.93,-1.562 -12.668,-3.058 -20.043,-4.418 l 109.992,-175.457 1.332,-0.832 c 1.226,-0.726 12.73,-7.25 45.605,-6.598 20.571,0.442 46.91,5.739 48.36,6.051 13.98,3.641 22.086,31.739 24.933,43.657 l 1.024,4.277 z m -477.375,4.418 c -5.722,3.047 -15.324,6.754 -31.93,10.437 -19.199,3.536 -24.75,3.481 -33.734,2.504 -29.41,-2.355 -46.914,-16.734 -47.668,-17.359 l -3.348,-2.789 1.016,-4.277 c 2.848,-11.918 10.957,-40.016 24.942,-43.657 1.445,-0.312 27.781,-5.609 48.359,-6.051 32.871,-0.652 44.355,5.872 45.598,6.598 l 1.335,0.832 113.387,180.867 c -6.25,1.875 -12.262,4.004 -18.066,6.34 C 579.625,514.988 513.59,428.016 508.16,420.422 Z m 311.356,385.976 138.957,180.43 c 0,0 -3.219,13.962 -16.016,22.412 -12.516,8.27 -26.969,6.6 -26.969,6.6 L 784.309,823.832 c 19.855,-7.297 31.511,-14.906 33.812,-16.469 z m -219.653,11.903 -134.75,197.539 c 0,0 -14.461,1.67 -26.972,-6.6 -12.793,-8.45 -16.024,-22.412 -16.024,-22.412 L 566.699,798.016 c 10.114,7.91 21.207,14.742 33.164,20.285" /><path
             id="path40"
             style="fill:#122341;fill-opacity:1;fill-rule:nonzero;stroke:none"
             d="m 712.363,838.211 c 10.309,36.898 29.231,66.605 29.231,66.605 v 18.559 c -57.739,-4.117 -109.199,0 -109.199,0 v -18.559 c 0,0 18.41,-30.476 28.668,-68.851 12.125,1.734 24.425,2.66 36.734,2.66 5.012,0 9.848,-0.168 14.566,-0.414" /><path
             id="path42"
             style="fill:#122341;fill-opacity:1;fill-rule:nonzero;stroke:none"
             d="m 602.867,314.512 v 60.84 h -6.691 l -27.77,-16.872 v -9.308 l 14.067,7.769 c -0.075,-0.031 0.207,0 0.511,0.059 0,-0.102 0,-42.719 0,-42.719 0,-5.851 0,-5.851 -6.582,-7.902 l -7.656,-2.34 v -6.937 l 4.992,0.238 16.571,0.301 27.336,-0.45 0.152,6.879 -9.707,2.852 c -4.906,1.43 -5.223,1.539 -5.223,7.59" /><path
             id="path44"
             style="fill:#122341;fill-opacity:1;fill-rule:nonzero;stroke:none"
             d="m 728.023,314.512 v 60.84 h -6.695 L 693.563,358.48 v -9.308 l 14.066,7.769 c -0.086,-0.031 0.207,0 0.516,0.059 0,-0.102 0,-42.719 0,-42.719 0,-5.851 0,-5.851 -6.59,-7.902 l -7.637,-2.34 v -6.937 l 4.969,0.238 16.566,0.301 27.36,-0.45 0.132,6.879 -9.683,2.852 c -4.918,1.43 -5.239,1.539 -5.239,7.59" /><path
             id="path46"
             style="fill:#122341;fill-opacity:1;fill-rule:nonzero;stroke:none"
             d="m 664.246,340.602 c -3.5,-1.832 -5.902,-2.614 -8.848,-2.614 -5.257,0 -10.168,1.75 -10.168,14.532 0,5.851 1.5,12.82 8.622,12.82 6.894,0 10.394,-7.621 10.394,-22.649 0,0 0,-1.05 0,-2.089 z m -10.293,33.808 c -18.562,0 -29.633,-9.441 -29.633,-25.18 0,-13.761 9.293,-22.64 23.711,-22.64 5.977,0 11.008,1.73 15.707,4.461 -1.222,-14.621 -10.808,-24.801 -24.707,-24.801 -3.254,0 -6.144,0.582 -9.593,1.891 l -2.329,0.89 -2.718,-7.742 2.093,-0.859 c 5.911,-2.578 11.731,-3.739 18.465,-3.739 24.137,0 40.328,18.348 40.328,45.579 0,20.699 -11.105,32.14 -31.324,32.14" /><path
             id="path48"
             style="fill:#122341;fill-opacity:1;fill-rule:nonzero;stroke:none"
             d="m 779.086,304.84 c -5.262,0 -10.664,2.73 -10.664,22.91 0,0 0,1.012 0,2 2.957,1.672 5.598,2.52 8.73,2.52 4.407,0 10.286,-1.461 10.286,-13.829 0,-8.992 -2.809,-13.601 -8.352,-13.601 z m 5.91,38.801 c -5.949,0 -11.207,-1.719 -15.933,-4.262 1.675,15.902 10.464,25.551 24.769,25.551 3.246,0 6.172,-0.469 9.504,-1.602 l 2.176,-0.699 3.027,7.5 -2.312,0.902 c -5.817,2.289 -11.747,3.379 -18.614,3.379 -24.398,0 -40.074,-18.051 -40.074,-45.941 0,-21.36 10.641,-32.231 31.649,-32.231 18.07,0 29.296,9.543 29.296,24.871 0,13.262 -9.683,22.532 -23.488,22.532" /><path
             id="path50"
             style="fill:#ffffff;fill-opacity:1;fill-rule:nonzero;stroke:none"
             d="m 689.73,228.371 c -252.781,0 -458.496,205.699 -458.496,458.543 0,252.836 205.715,458.496 458.496,458.496 252.805,0 458.53,-205.66 458.53,-458.496 0,-252.844 -205.725,-458.543 -458.53,-458.543 z m -0.277,942.749 c -266.012,0 -482.457,-216.421 -482.457,-482.464 0,-266.019 216.445,-482.418 482.457,-482.418 265.981,0 482.457,216.399 482.457,482.418 0,266.043 -216.476,482.464 -482.457,482.464" /><path
             id="path52"
             style="fill:#ffffff;fill-opacity:1;fill-rule:nonzero;stroke:none"
             d="m 689.41,61.0117 c -346.058,0 -627.6366,281.5703 -627.6366,627.6443 0,346.134 281.5786,627.694 627.6366,627.694 346.16,0 627.67,-281.56 627.67,-627.694 0,-346.074 -281.51,-627.6443 -627.67,-627.6443 z M 689.73,1342.56 C 329.813,1342.56 36.9453,1049.73 36.9453,689.773 36.9453,329.84 329.813,36.9414 689.73,36.9414 c 359.97,0 652.82,292.8986 652.82,652.8316 0,359.957 -292.85,652.787 -652.82,652.787" /><path
             id="path54"
             style="fill:#ffffff;fill-opacity:1;fill-rule:nonzero;stroke:none"
             d="m 392.617,220.73 -0.117,-0.171 c -6.504,-9.731 -18.766,-12.938 -28.824,-6.239 -10.031,6.758 -11.711,19.621 -5.192,29.34 l 0.106,0.18 c 6.539,9.711 18.851,12.93 28.859,6.18 10.016,-6.711 11.696,-19.61 5.168,-29.29 z m 2.727,40.7 c -17.485,11.75 -39.051,7.121 -49.875,-8.989 l -0.094,-0.16 c -10.828,-16.109 -7.074,-37.59 10.406,-49.312 17.5,-11.758 39.032,-7.117 49.887,8.992 l 0.125,0.148 c 10.805,16.121 7.043,37.602 -10.449,49.321" /><path
             id="path56"
             style="fill:#ffffff;fill-opacity:1;fill-rule:nonzero;stroke:none"
             d="m 412.754,169.891 13.57,-6.391 11.313,23.879 29.426,-13.93 5.832,12.34 -29.473,13.922 6.187,13.129 33.442,-15.731 5.836,12.321 -47.032,22.179 -29.101,-61.718" /><path
             id="path58"
             style="fill:#ffffff;fill-opacity:1;fill-rule:nonzero;stroke:none"
             d="m 555.957,147.07 13.648,19.641 4.09,-23.582 z m 10.961,38.719 -43.398,-60.82 14.976,-3.27 9.379,13.59 28.199,-6.258 2.781,-16.281 15.368,-3.41 -13.774,73.449 -13.531,3" /><path
             id="path60"
             style="fill:#ffffff;fill-opacity:1;fill-rule:nonzero;stroke:none"
             d="m 656.918,143.43 -16.309,29.75 -16.214,0.902 -3.676,-68.141 14.707,-0.832 2.383,44.223 17.425,-29.844 0.395,-0.027 20.754,28.07 -2.418,-44.5 14.902,-0.781 3.699,68.109 -16.183,0.879 -19.465,-27.808" /><path
             id="path62"
             style="fill:#ffffff;fill-opacity:1;fill-rule:nonzero;stroke:none"
             d="m 734.836,118.398 -1.379,14.211 32.004,3.141 -1.297,13.27 -32.008,-3.09 -1.312,13.769 36.359,3.563 -1.289,13.289 -51.23,-5.031 6.593,-67.872 51.707,5.043 -1.296,13.258 -36.852,-3.551" /><path
             id="path64"
             style="fill:#ffffff;fill-opacity:1;fill-rule:nonzero;stroke:none"
             d="m 823.242,154.871 -14.824,-3.59 -4.594,19.051 14.469,3.52 c 7.137,1.718 12.254,-0.442 13.781,-6.68 l 0.039,-0.223 c 1.356,-5.558 -1.765,-10.347 -8.871,-12.078 z m 23.496,16.449 -0.074,0.2 c -1.508,6.25 -4.769,10.929 -9.375,13.789 -5.41,3.293 -12.539,4.082 -20.926,2 l -30.34,-7.379 16.149,-66.289 14.582,3.539 -5.176,21.211 11.254,2.718 0.219,0.063 19.375,-17.75 17.051,4.148 -21.981,19.731 c 7.695,5.168 11.817,13.328 9.242,24.019" /><path
             id="path66"
             style="fill:#ffffff;fill-opacity:1;fill-rule:nonzero;stroke:none"
             d="m 862.539,201.18 23.617,-63.989 14.059,5.2 -23.621,64.007 -14.055,-5.218" /><path
             id="path68"
             style="fill:#ffffff;fill-opacity:1;fill-rule:nonzero;stroke:none"
             d="m 954.332,180.559 c -10.449,-5.258 -22.102,-0.239 -27.398,10.179 l -0.071,0.192 c -5.32,10.429 -2.222,22.711 8.047,27.922 6.07,3.046 12.164,2.878 19.035,1.007 L 957.488,234 c -8.496,2.711 -17.293,3.039 -28.777,-2.781 -18.688,-9.489 -24.516,-30.258 -15.777,-47.547 l 0.113,-0.211 c 8.855,-17.481 29.203,-24.539 47.098,-15.441 11.718,5.949 16.574,13.66 19.468,23.539 l -12.937,4.25 c -2.578,-6.758 -5.422,-11.719 -12.344,-15.25" /><path
             id="path70"
             style="fill:#ffffff;fill-opacity:1;fill-rule:nonzero;stroke:none"
             d="m 1023.71,242.48 -14.75,-10.601 -5.55,23.281 z m -36.253,23.411 16.283,-72.911 12.42,8.961 -3.85,16.039 23.49,16.829 13.96,-8.821 12.76,9.16 -63.832,38.813 -11.231,-8.07" /><path
             id="path72"
             style="fill:#ffffff;fill-opacity:1;fill-rule:nonzero;stroke:none"
             d="m 236.109,335.93 -7.07,9.269 c -4.59,6.012 -4.527,11.949 0.844,16.063 l 0.137,0.09 c 4.664,3.539 10.949,2.769 15.503,-3.211 l 7.235,-9.539 z m 27.297,20.832 -6.922,9.09 c -9.328,12.257 -23.293,17.086 -35.953,7.449 l -0.136,-0.11 c -11.133,-8.472 -12.891,-22.211 -2.985,-35.203 l 16.981,-22.277 54.523,41.5 -9.129,11.961 -16.379,-12.41" /><path
             id="path74"
             style="fill:#ffffff;fill-opacity:1;fill-rule:nonzero;stroke:none"
             d="m 189.883,404.023 -7.211,13.133 c -3.524,6.442 -2.813,12.012 2.859,15.121 l 0.199,0.086 c 5.028,2.754 10.504,0.985 14.043,-5.441 l 7.372,-13.438 z m 48.148,26.497 -19.226,-10.575 -5.617,10.211 -0.086,0.176 12.164,23.422 -8.524,15.453 -13.375,-26.473 c -7.035,6.106 -15.972,7.977 -25.672,2.657 l -0.183,-0.098 c -5.653,-3.117 -9.403,-7.551 -10.891,-12.703 -1.793,-6.133 -0.687,-13.215 3.535,-20.848 l 15.059,-27.445 60.078,32.98 -7.262,13.243" /><path
             id="path76"
             style="fill:#ffffff;fill-opacity:1;fill-rule:nonzero;stroke:none"
             d="m 171.582,488.535 c -11.137,-3.898 -22.926,0.918 -26.941,12.352 -4.016,11.468 2.367,22.828 13.464,26.703 l 0.2,0.07 c 11.066,3.867 22.91,-0.91 26.91,-12.367 4.019,-11.473 -2.367,-22.813 -13.469,-26.699 z m 5.543,-14.738 c 18.387,6.422 28.262,25.918 21.281,45.891 -6.965,19.96 -27.097,29.21 -45.484,22.781 l -0.192,-0.039 c -18.382,-6.45 -28.261,-26 -21.285,-45.942 6.977,-19.984 27.102,-29.183 45.52,-22.793 l 0.16,0.102" /><path
             id="path78"
             style="fill:#ffffff;fill-opacity:1;fill-rule:nonzero;stroke:none"
             d="m 177.91,590.441 -26.094,-4.671 -5.73,32.183 -13.492,-2.398 5.722,-32.168 -14.347,-2.574 -6.504,36.519 -13.504,-2.398 9.16,-51.371 67.442,12.027 -2.653,14.851" /><path
             id="path80"
             style="fill:#ffffff;fill-opacity:1;fill-rule:nonzero;stroke:none"
             d="m 167.688,699.906 -13.45,-0.484 1.309,-37.168 -14.34,-0.524 -1.141,32.293 -13.39,-0.496 1.117,-32.277 -13.891,-0.48 -1.273,36.703 -13.4063,-0.481 1.8123,-51.637 68.473,2.387 -1.82,52.164" /><path
             id="path82"
             style="fill:#ffffff;fill-opacity:1;fill-rule:nonzero;stroke:none"
             d="m 119.918,725.227 h 0.199 c 13.567,-1.418 18.266,7.07 23.196,20.39 4.132,11.121 6.304,13.242 10.101,12.863 l 0.195,-0.039 c 3.996,-0.39 6.047,-4.32 5.411,-10.503 -0.821,-7.774 -4.707,-13.868 -10.399,-19.481 l 9.684,-9.992 c 8.14,7.453 12.84,17.5 13.902,27.808 1.527,14.731 -4.965,25.817 -18.516,27.247 l -0.191,0.015 c -11.906,1.231 -17.641,-6.051 -22.703,-19.492 -4.219,-11.457 -6.024,-14.238 -10.469,-13.785 h -0.211 c -3.297,0.336 -5.613,3.633 -5.023,9.383 0.558,5.761 3.734,11.453 8.578,17.062 l -10.504,8.942 c -6.254,-6.364 -10.254,-14.489 -11.293,-24.43 -1.469,-13.887 5.703,-24.684 18.043,-25.988" /><path
             id="path84"
             style="fill:#ffffff;fill-opacity:1;fill-rule:nonzero;stroke:none"
             d="m 129.742,801.758 0.215,-0.031 c 13.184,-3.207 19.031,4.496 25.684,17.086 5.609,10.41 8.082,12.25 11.761,11.328 l 0.227,-0.039 c 3.879,-0.957 5.367,-5.172 3.898,-11.164 -1.882,-7.583 -6.527,-13.09 -12.937,-17.895 l 8.242,-11.199 c 9.109,6.273 15.094,15.594 17.578,25.668 3.512,14.351 -1.472,26.265 -14.703,29.48 l -0.168,0.055 c -11.586,2.844 -18.305,-3.563 -25.137,-16.227 -5.734,-10.785 -7.894,-13.308 -12.238,-12.238 l -0.246,0.07 c -3.184,0.778 -5.055,4.332 -3.664,9.989 1.359,5.578 5.258,10.781 10.809,15.703 l -9.165,10.281 c -7.101,-5.43 -12.132,-12.934 -14.523,-22.66 -3.336,-13.578 2.316,-25.235 14.367,-28.207" /><path
             id="path86"
             style="fill:#ffffff;fill-opacity:1;fill-rule:nonzero;stroke:none"
             d="m 202.145,875.73 -64.34,23.481 -5.211,-14.164 64.41,-23.473 5.141,14.156" /><path
             id="path88"
             style="fill:#ffffff;fill-opacity:1;fill-rule:nonzero;stroke:none"
             d="m 176.891,955.359 c 5.597,10.832 18.25,13.965 28.711,8.536 l 0.168,-0.106 c 10.386,-5.41 15.015,-17.285 9.433,-28.055 -5.598,-10.765 -18.25,-13.91 -28.676,-8.5 l -0.172,0.082 c -10.414,5.442 -15.046,17.332 -9.464,28.043 z m 2.367,-42.109 0.215,-0.078 c 17.238,-9.02 38.277,-2.813 47.988,15.98 9.73,18.731 2.644,39.758 -14.641,48.723 l -0.156,0.086 c -17.297,8.992 -38.266,2.781 -48.023,-15.977 -9.735,-18.75 -2.649,-39.773 14.617,-48.734" /><path
             id="path90"
             style="fill:#ffffff;fill-opacity:1;fill-rule:nonzero;stroke:none"
             d="m 264.734,992.609 -34.668,26.401 h 54.735 l 7.789,10.21 -54.52,41.49 -9.011,-11.82 33.531,-25.57 -52.985,0.02 -8.414,-11.07 54.512,-41.485 9.031,11.824" /><path
             id="path92"
             style="fill:#ffffff;fill-opacity:1;fill-rule:nonzero;stroke:none"
             d="m 318.508,1095.86 -13.227,-12.45 -8.64,22.41 z m -2.086,-41.33 -5.973,15.45 21.078,19.89 15.114,-6.9 11.504,10.79 -68.715,30.13 -10.117,-9.51 25.917,-70.41 11.192,10.56" /><path
             id="path94"
             style="fill:#ffffff;fill-opacity:1;fill-rule:nonzero;stroke:none"
             d="m 414.363,1133.27 -7.781,11.25 -28.129,-19.49 -31.191,45.07 -12.434,-8.59 39.09,-56.32 40.445,28.08" /><path
             id="path96"
             style="fill:#ffffff;fill-opacity:1;fill-rule:nonzero;stroke:none"
             d="m 450.098,1191.76 c 7.558,-18.78 26.793,-27.22 46.59,-19.23 11.632,4.68 18.82,12.85 23.093,20.99 l -11.148,27.63 -27.61,-11.12 4.895,-12.08 14.07,5.66 3.68,-9.04 c -2.531,-4.04 -6.535,-7.1 -11.664,-9.13 -11.258,-4.56 -22.703,0.77 -27.352,12.4 l -0.082,0.16 c -4.351,10.82 0.137,23.05 10.317,27.16 7.34,2.95 12.629,2.32 19.207,0.24 l 4.511,14.18 c -8.898,2.92 -17.042,3.29 -28.468,-1.37 -19.278,-7.74 -27.387,-28.2 -20.114,-46.26 l 0.075,-0.19" /><path
             id="path98"
             style="fill:#ffffff;fill-opacity:1;fill-rule:nonzero;stroke:none"
             d="m 566.738,1253.05 c 11.871,2.53 22.321,-5.23 24.793,-16.75 l 0.051,-0.18 c 2.438,-11.48 -3.777,-22.62 -15.629,-25.13 -11.91,-2.54 -22.344,5.23 -24.816,16.68 l -0.051,0.21 c -2.43,11.48 3.781,22.66 15.652,25.17 z m -30.976,-28.82 c 4.097,-19.06 22.218,-31.32 42.867,-26.91 20.695,4.42 32.402,23.23 28.324,42.27 l -0.055,0.21 c -4.07,19.05 -22.195,31.3 -42.875,26.9 -20.656,-4.43 -32.367,-23.25 -28.3,-42.28 l 0.039,-0.19" /><path
             id="path100"
             style="fill:#ffffff;fill-opacity:1;fill-rule:nonzero;stroke:none"
             d="m 685.598,1210.66 -0.75,13.68 -34.129,-1.86 -3.031,54.71 -15.032,-0.8 3.785,-68.46 49.157,2.73" /><path
             id="path102"
             style="fill:#ffffff;fill-opacity:1;fill-rule:nonzero;stroke:none"
             d="m 722.91,1235.4 32.598,-2.61 1.094,13.68 -32.614,2.6 1.192,14.57 36.965,-3.01 1.113,13.68 -52.02,4.17 -5.48,-68.31 15.004,-1.17 2.148,26.4" /><path
             id="path104"
             style="fill:#ffffff;fill-opacity:1;fill-rule:nonzero;stroke:none"
             d="m 832.301,1204.22 -36.328,8.18 3.168,14.01 31.507,-7.11 2.957,13.1 -31.535,7.12 3.11,13.56 35.761,-8.07 2.977,13.04 -50.422,11.39 -15.117,-66.81 50.93,-11.53 2.992,13.12" /><path
             id="path106"
             style="fill:#ffffff;fill-opacity:1;fill-rule:nonzero;stroke:none"
             d="m 884.656,1230.25 13.989,-5.48 c 6.808,-2.66 9.793,-7.41 7.449,-13.39 l -0.078,-0.22 c -2.106,-5.36 -7.43,-7.48 -14.239,-4.81 l -14.25,5.56 z m -11.968,-30.75 10.832,-4.25 0.175,-0.07 5.758,-25.72 16.426,-6.42 -6.731,28.85 c 9.29,-0.13 17.372,4.17 21.387,14.46 l 0.063,0.17 c 2.355,6.06 2.375,11.82 0.293,16.76 -2.621,5.82 -8.008,10.58 -16.157,13.74 l -29.171,11.37 -24.883,-63.82 14.011,-5.49 7.997,20.42" /><path
             id="path108"
             style="fill:#ffffff;fill-opacity:1;fill-rule:nonzero;stroke:none"
             d="m 944.633,1140.78 c 12.851,-7.32 25.664,-5.83 32.398,5.98 l 0.094,0.18 c 5.91,10.38 1.59,18.58 -8.734,28.63 -8.774,8.47 -10.614,11.22 -8.368,15.14 l 0.114,0.15 c 1.625,2.91 5.601,3.71 10.59,0.84 5.05,-2.87 8.961,-8.02 12.117,-14.69 l 12.429,6 c -3.296,8.26 -9.117,15.22 -17.796,20.17 -12.141,6.9 -24.883,4.7 -31.059,-6.08 l -0.105,-0.17 c -6.684,-11.85 -0.875,-19.54 9.351,-29.46 8.516,-8.2 9.594,-11.08 7.699,-14.4 l -0.062,-0.17 c -2.031,-3.49 -6.469,-3.77 -11.824,-0.72 -6.805,3.88 -10.813,9.88 -13.661,17.35 l -13.035,-4.86 c 3.539,-10.46 10.832,-18.78 19.852,-23.89" /><path
             id="path110"
             style="fill:#ffffff;fill-opacity:1;fill-rule:nonzero;stroke:none"
             d="m 1028.66,1153.08 7.7,10.75 -12.88,9.24 -9.12,-12.74 4.91,-3.54 c -2.81,-4.8 -7.53,-5.66 -13.43,-2.27 l -2.57,-5.78 c 9.59,-6.6 17.88,-6.15 25.39,4.34" /><path
             id="path112"
             style="fill:#ffffff;fill-opacity:1;fill-rule:nonzero;stroke:none"
             d="m 1101.46,1082.7 -9.87,-21.88 -12.54,13.25 z m -35.8,-13.89 19.93,-21.04 -6.88,-15.11 10.84,-11.48 29.98,68.79 -9.56,10.06 -70.3,-26.09 10.56,-11.14 15.43,6.01" /><path
             id="path114"
             style="fill:#ffffff;fill-opacity:1;fill-rule:nonzero;stroke:none"
             d="m 1105.92,1015.88 c -1.29,-10.95 1.7,-21.634 7.64,-30.15 8.48,-12.125 20.66,-16.246 31.86,-8.484 l 0.14,0.109 c 9.81,6.868 9.41,16.114 4.43,29.595 -4.28,11.46 -4.76,14.7 -1.07,17.27 l 0.13,0.14 c 2.77,1.88 6.65,0.89 9.99,-3.84 3.3,-4.73 4.63,-11.07 4.65,-18.48 l 13.75,0.08 c 0.63,8.9 -1.7,17.67 -7.39,25.88 -8,11.45 -20.46,14.94 -30.65,7.82 l -0.13,-0.09 c -11.2,-7.75 -9.22,-17.27 -4.26,-30.61 4.2,-11.077 3.91,-14.116 0.78,-16.304 l -0.14,-0.117 c -3.33,-2.289 -7.48,-0.644 -10.98,4.395 -4.51,6.449 -5.52,13.596 -4.9,21.576 l -13.85,1.21" /><path
             id="path116"
             style="fill:#ffffff;fill-opacity:1;fill-rule:nonzero;stroke:none"
             d="m 1173.53,941.699 c 2.55,-11.558 1.9,-14.492 -1.51,-16.281 l -0.13,-0.105 c -3.6,-1.778 -7.44,0.39 -10.27,5.898 -3.54,6.945 -3.67,14.18 -1.9,21.992 l -13.56,3.086 c -2.81,-10.715 -1.25,-21.672 3.51,-30.879 6.71,-13.183 18.24,-18.937 30.33,-12.746 l 0.21,0.098 c 10.62,5.449 11.43,14.679 8.36,28.722 -2.68,11.922 -2.74,15.2 1.28,17.258 l 0.19,0.09 c 2.96,1.508 6.69,0.016 9.35,-5.141 2.6,-5.128 3.06,-11.593 2.09,-18.921 l 13.67,-1.793 c 1.78,8.722 0.7,17.714 -3.87,26.601 -6.34,12.473 -18.2,17.621 -29.28,11.957 l -0.19,-0.097 c -12.11,-6.176 -11.42,-15.825 -8.28,-29.739" /><path
             id="path118"
             style="fill:#ffffff;fill-opacity:1;fill-rule:nonzero;stroke:none"
             d="m 1207.64,881.828 c 11.2,3.672 22.92,-1.387 26.65,-12.957 3.77,-11.5 -2.86,-22.738 -14.03,-26.371 l -0.23,-0.039 c -11.18,-3.684 -22.88,1.371 -26.66,12.922 -3.73,11.531 2.94,22.769 14.08,26.402 z m -5.23,14.879 c -18.53,-6.016 -28.83,-25.332 -22.32,-45.426 6.56,-20.129 26.51,-29.781 45.03,-23.738 l 0.17,0.035 c 18.52,6.043 28.82,25.352 22.29,45.43 -6.54,20.101 -26.47,29.785 -45,23.789 l -0.17,-0.09" /><path
             id="path120"
             style="fill:#ffffff;fill-opacity:1;fill-rule:nonzero;stroke:none"
             d="m 1230.38,803.086 -0.17,-0.051 c -19.48,-2.898 -32.69,-19.992 -29.75,-39.918 1.95,-13.07 7.75,-20.14 16.24,-26.027 l 8.19,10.937 c -5.64,4.59 -9.47,8.899 -10.57,16.641 -1.74,11.59 6.76,21.059 18.37,22.824 l 0.2,0.02 c 11.62,1.734 22.35,-5.129 24.04,-16.547 0.96,-6.766 -1.14,-12.543 -5.12,-18.453 l 12.36,-7.871 c 5.28,7.203 8.4,15.476 6.49,28.277 -3.09,20.805 -21.03,32.984 -40.28,30.168" /><path
             id="path122"
             style="fill:#ffffff;fill-opacity:1;fill-rule:nonzero;stroke:none"
             d="m 1206.64,698.758 68.47,2.027 -0.42,15.035 -68.51,-2.004 0.46,-15.058" /><path
             id="path124"
             style="fill:#ffffff;fill-opacity:1;fill-rule:nonzero;stroke:none"
             d="m 1233.83,649.043 21.28,-11.102 -22.96,-7.031 z m -27.49,14.246 14.72,-7.66 -2.66,-28.836 -15.87,-4.84 -1.47,-15.699 71.41,22.898 1.29,13.868 -66,35.582 -1.42,-15.313" /><path
             id="path126"
             style="fill:#ffffff;fill-opacity:1;fill-rule:nonzero;stroke:none"
             d="m 1248.11,567.973 -53.22,12.332 -3.4,-14.68 53.24,-12.34 -4.74,-20.324 13.55,-3.109 12.81,55.277 -13.49,3.164 -4.75,-20.32" /><path
             id="path128"
             style="fill:#ffffff;fill-opacity:1;fill-rule:nonzero;stroke:none"
             d="m 1174.81,511.152 64.61,-22.746 5.01,14.223 -64.63,22.75 -4.99,-14.227" /><path
             id="path130"
             style="fill:#ffffff;fill-opacity:1;fill-rule:nonzero;stroke:none"
             d="m 1200.94,431.816 c -5.46,-10.847 -18.12,-14.121 -28.56,-8.796 l -0.2,0.085 c -10.49,5.301 -15.29,17.133 -9.8,27.969 5.51,10.848 18.13,14.11 28.63,8.789 l 0.18,-0.054 c 10.47,-5.336 15.24,-17.153 9.75,-27.993 z m -2.85,42.153 -0.16,0.039 c -17.37,8.836 -38.3,2.387 -47.87,-16.485 -9.5,-18.863 -2.22,-39.8 15.2,-48.597 l 0.16,-0.094 c 17.4,-8.766 38.3,-2.316 47.84,16.559 9.49,18.847 2.23,39.777 -15.17,48.578" /><path
             id="path132"
             style="fill:#ffffff;fill-opacity:1;fill-rule:nonzero;stroke:none"
             d="m 1113.56,393.68 34.93,-25.989 -54.76,-0.632 -7.69,-10.27 55,-40.949 8.92,11.961 -33.86,25.16 52.99,0.57 8.31,11.188 -54.98,40.89 -8.86,-11.929" /><path
             id="path134"
             style="fill:#ffffff;fill-opacity:1;fill-rule:nonzero;stroke:none"
             d="m 807.262,658.848 22.187,6.511 v 27.848 H 685.238 v -27.848 l 22.188,-6.511 c 15.793,-4.84 16.402,-6.633 16.402,-19.223 V 601.73 c -7.961,-1.562 -23,-1.718 -32.734,-0.285 -52.145,7.618 -66.508,46.016 -66.508,86.293 0,22.637 7.605,43.188 24.883,59.883 12.344,11.91 31.215,22.742 59.922,21.707 12.5,-0.473 26.898,-6.437 31.839,-9.89 14.293,-9.942 17.625,-21.657 21.422,-36.071 h 36.95 l -0.164,56.696 c 0,0 -37.258,25.488 -101.645,25.488 -51.133,0 -151.695,-21.266 -151.695,-121.25 0,-61.371 51.543,-109.262 141.191,-113.821 61.793,-3.117 103.664,15.106 103.664,15.106 l -0.051,54.039 c 0,12.59 0.614,14.383 16.36,19.223" /><path
             id="path136"
             style="fill:#ffffff;fill-opacity:1;fill-rule:nonzero;stroke:none"
             d="m 455.938,699.559 c -4.028,-3.68 -13.118,-8.168 -20.504,-10.028 -20.2,-5.109 -46.149,-3.113 -47.09,-3.113 v 85.684 c 17.109,0 47.011,2.593 66.242,-11.243 9.457,-6.816 15,-17.636 15.277,-31.597 0.239,-9.86 -3.398,-20.676 -13.925,-29.703 z m -5.379,100.636 c -10.754,1.157 -41.883,1.485 -41.883,1.485 l -126.84,-0.055 v -27.75 l 21.289,-6.562 c 17.258,-5.575 17.258,-7.227 17.258,-19.918 l 0.113,-120.649 c 0,-12.719 0,-13.476 -17.316,-18.984 l -21.227,-6.082 v -27.899 h 144.848 v 27.899 l -21.219,6.082 c -17.305,5.508 -17.305,6.265 -17.305,18.984 l 0.067,29.121 c 2.222,0 34.293,0 34.293,0 31.543,0.481 57.058,2.508 79.851,15.375 21.715,12.332 33.617,35.098 33.617,58.903 0,38.398 -30.375,64.398 -85.546,70.05" /><path
             id="path138"
             style="fill:#ffffff;fill-opacity:1;fill-rule:nonzero;stroke:none"
             d="m 913.406,652.035 c 14.621,27.852 35.168,67.602 36.614,70.488 1.429,-3.355 20.246,-42.144 33.996,-70.488 z m 183.234,-44.816 c -12.9,4.781 -15.85,7.066 -19.55,15.238 L 987.086,801.535 H 949.758 L 849.082,618.988 c -3.644,-6.855 -6.93,-8.468 -15.371,-11.468 l -22.887,-6.985 v -26.68 h 111.711 v 27.344 l -24.824,6.426 c -5.305,1.301 -5.074,4.844 -3.809,7.223 0,0 3.231,6.172 8.114,15.453 h 93.496 c 4.968,-9.363 6.288,-11.246 7.888,-14.633 2.38,-4.996 -2.24,-7.23 -8.091,-8.883 l -22.36,-6.195 v -26.735 h 143.401 v 26.25 c 0,0 -19.69,7.114 -19.71,7.114" /><path
             id="path140"
             style="fill:#b09247;fill-opacity:1;fill-rule:nonzero;stroke:none"
             d="m 4629.21,363.398 h -23.74 v 12.204 h 60.78 v -12.204 h -23.77 v -62.687 h -13.27 v 62.687" /><path
             id="path142"
             style="fill:#b09247;fill-opacity:1;fill-rule:nonzero;stroke:none"
             d="m 4678.02,375.602 h 14.03 l 22.77,-35.43 22.78,35.43 h 14.03 v -74.891 h -13.16 v 53.711 l -23.65,-35.313 h -0.42 l -23.43,35.09 v -53.488 h -12.95 v 74.891" /></g></g></g></g></svg>